<svg id="svg" version="1.1" xmlns="http://www.w3.org/2000/svg" xmlns:xlink="http://www.w3.org/1999/xlink" width="400" height="400" viewBox="0, 0, 400,400"><g id="svgg"><path id="path0" d="M173.200 174.606 C 173.200 174.719,173.731 175.304,174.379 175.906 C 175.440 176.891,177.517 180.489,183.931 192.461 L 186.000 196.321 185.960 201.461 C 185.911 207.776,185.751 208.411,183.988 209.299 C 182.619 209.989,182.703 209.998,190.000 209.963 C 195.250 209.938,197.028 209.820,196.118 209.557 C 193.764 208.877,193.600 208.248,193.600 199.911 C 193.600 193.002,193.543 192.400,192.895 192.400 C 192.382 192.400,191.099 190.276,188.195 184.619 C 183.889 176.231,183.747 175.550,186.240 175.269 C 190.092 174.835,187.311 174.400,180.680 174.400 C 176.566 174.400,173.200 174.493,173.200 174.606 M195.400 174.800 C 195.536 175.020,195.952 175.206,196.324 175.213 C 199.864 175.279,199.770 179.178,196.047 186.799 C 193.461 192.091,193.347 192.355,193.894 191.800 C 194.111 191.580,195.798 188.453,197.644 184.850 C 199.715 180.809,201.651 177.601,202.700 176.473 C 203.635 175.468,204.400 174.590,204.400 174.523 C 204.400 174.455,202.319 174.400,199.776 174.400 C 196.796 174.400,195.241 174.542,195.400 174.800 M207.600 174.800 C 207.600 175.020,208.022 175.200,208.538 175.200 C 210.940 175.200,210.988 175.498,211.124 191.342 C 211.271 208.533,211.247 208.669,208.000 209.739 C 207.670 209.848,210.730 209.933,214.800 209.929 C 218.870 209.924,221.840 209.803,221.400 209.660 C 218.795 208.813,218.462 207.663,218.424 199.389 C 218.406 195.403,218.539 193.979,218.993 193.332 C 219.516 192.584,219.516 192.428,218.993 191.994 C 217.748 190.961,218.372 177.057,219.723 175.705 C 221.565 173.863,226.407 175.450,227.731 178.328 C 230.461 184.262,228.092 191.271,223.035 192.220 L 221.498 192.508 223.049 193.039 C 225.619 193.919,226.482 195.660,227.592 202.200 C 228.349 206.660,229.127 208.694,230.433 209.623 C 232.675 211.220,237.841 211.029,240.014 209.269 L 240.904 208.549 239.446 208.719 C 237.142 208.988,236.901 208.594,235.565 202.400 C 234.260 196.349,231.664 193.600,227.254 193.600 C 226.784 193.600,226.401 193.465,226.403 193.300 C 226.407 192.921,228.355 192.003,229.180 191.991 C 230.463 191.971,233.809 189.743,234.873 188.200 C 238.943 182.294,236.101 176.649,228.200 174.946 C 225.250 174.310,207.600 174.185,207.600 174.800 M242.800 174.790 C 242.800 175.015,243.330 175.200,243.977 175.200 C 246.369 175.200,246.400 175.414,246.400 191.709 C 246.400 207.974,246.380 208.119,243.921 209.331 C 242.622 209.971,242.677 209.982,247.200 209.982 L 251.800 209.982 250.127 209.223 C 247.200 207.894,247.200 207.895,247.200 192.020 C 247.200 184.309,247.354 178.000,247.543 178.000 C 247.732 178.000,248.743 180.025,249.790 182.500 C 250.837 184.975,252.193 188.170,252.803 189.600 C 253.413 191.030,254.813 194.360,255.914 197.000 C 260.745 208.586,261.365 210.000,261.608 210.000 C 261.904 210.000,266.400 198.795,266.400 198.057 C 266.400 197.972,266.126 198.130,265.790 198.408 C 265.455 198.686,265.112 198.843,265.027 198.757 C 264.766 198.489,262.810 193.990,261.134 189.800 C 260.254 187.600,259.281 185.260,258.972 184.600 C 258.662 183.940,257.614 181.420,256.643 179.000 L 254.877 174.600 248.839 174.490 C 244.906 174.418,242.800 174.522,242.800 174.790 M274.893 174.900 C 274.670 175.175,274.214 176.210,273.881 177.200 C 273.548 178.190,272.966 179.772,272.588 180.717 C 272.209 181.661,271.991 182.524,272.103 182.636 C 272.214 182.748,272.632 181.930,273.032 180.819 C 274.283 177.341,274.400 178.419,274.400 193.404 C 274.400 209.618,274.503 209.003,271.693 209.653 C 271.092 209.792,274.110 209.902,278.400 209.898 C 282.690 209.894,285.750 209.810,285.200 209.710 C 284.650 209.611,283.795 209.154,283.300 208.695 L 282.400 207.861 282.400 192.419 C 282.400 175.643,282.457 175.200,284.599 175.200 C 285.124 175.200,285.664 175.020,285.800 174.800 C 286.189 174.171,275.403 174.270,274.893 174.900 M311.436 183.451 C 311.246 183.947,310.853 184.048,309.793 183.876 C 308.744 183.706,308.400 183.792,308.400 184.225 C 308.400 184.541,308.132 184.800,307.805 184.800 C 307.136 184.800,306.067 185.585,304.130 187.500 C 303.406 188.215,302.631 188.800,302.407 188.800 C 302.183 188.800,302.000 188.980,302.000 189.200 C 302.000 189.882,302.994 189.641,303.589 188.815 C 303.901 188.383,304.660 187.919,305.278 187.783 C 305.895 187.647,306.400 187.307,306.400 187.027 C 306.400 186.224,312.584 186.481,313.514 187.323 C 314.999 188.666,313.976 198.800,312.357 198.800 C 312.160 198.800,312.000 199.040,312.000 199.334 C 312.000 199.628,311.460 200.349,310.800 200.937 C 309.612 201.996,309.254 202.800,309.971 202.800 C 310.176 202.800,310.613 202.530,310.943 202.200 C 311.273 201.870,311.736 201.600,311.971 201.600 C 312.207 201.600,312.400 201.459,312.400 201.286 C 312.400 200.902,314.882 199.381,315.300 199.508 C 315.465 199.559,315.600 199.375,315.601 199.100 C 315.601 198.825,316.416 198.085,317.411 197.456 C 319.104 196.387,321.600 193.390,321.600 192.428 C 321.600 192.193,321.825 191.999,322.100 191.999 C 322.439 191.998,322.600 191.291,322.600 189.799 C 322.600 188.589,322.456 187.600,322.279 187.600 C 322.103 187.600,321.770 187.059,321.539 186.398 C 321.280 185.654,320.754 185.103,320.160 184.954 C 319.632 184.822,319.200 184.494,319.200 184.226 C 319.200 183.912,318.774 183.801,318.005 183.914 C 317.159 184.038,316.737 183.901,316.562 183.445 C 316.204 182.512,311.794 182.517,311.436 183.451 M341.036 183.451 C 340.846 183.947,340.453 184.048,339.393 183.876 C 338.344 183.706,338.000 183.792,338.000 184.225 C 338.000 184.541,337.685 184.804,337.300 184.809 C 336.915 184.814,336.161 185.155,335.625 185.567 C 335.088 185.980,334.421 186.230,334.142 186.123 C 333.421 185.846,331.557 187.823,331.841 188.564 C 331.970 188.898,331.698 189.701,331.237 190.348 C 330.777 190.994,330.400 191.811,330.400 192.162 C 330.400 192.513,330.175 192.800,329.900 192.800 C 329.137 192.800,329.197 201.641,329.965 202.242 C 330.278 202.487,330.417 202.978,330.278 203.342 C 330.114 203.769,330.232 204.000,330.613 204.000 C 330.936 204.000,331.200 204.225,331.200 204.500 C 331.201 205.116,335.066 209.200,335.366 208.901 C 335.484 208.783,335.697 208.987,335.838 209.355 C 336.006 209.792,336.355 209.941,336.847 209.785 C 337.329 209.632,337.600 209.739,337.600 210.084 C 337.600 210.469,338.051 210.578,339.197 210.469 C 340.390 210.355,340.855 210.479,341.039 210.958 C 341.316 211.680,344.800 211.904,344.800 211.200 C 344.800 210.980,344.365 210.800,343.833 210.800 C 342.513 210.800,341.600 210.409,341.600 209.845 C 341.600 209.587,341.027 209.159,340.326 208.895 C 339.626 208.630,339.157 208.310,339.284 208.182 C 339.412 208.055,339.071 207.470,338.527 206.883 C 337.804 206.103,337.595 205.526,337.751 204.744 C 337.889 204.057,337.775 203.599,337.434 203.468 C 336.694 203.185,336.679 191.621,337.417 191.338 C 337.689 191.234,337.818 190.791,337.704 190.353 C 337.407 189.220,339.712 184.800,340.600 184.800 C 340.741 184.800,341.116 184.542,341.432 184.226 C 342.036 183.621,344.873 183.802,345.133 184.462 C 345.207 184.648,345.489 184.800,345.761 184.800 C 346.414 184.800,348.000 186.644,348.000 187.403 C 348.000 187.731,348.200 188.000,348.443 188.000 C 348.717 188.000,348.790 188.384,348.636 189.000 C 348.466 189.675,348.551 190.000,348.894 190.000 C 349.594 190.000,349.610 203.663,348.910 203.897 C 348.654 203.982,348.545 204.312,348.667 204.629 C 349.079 205.705,346.718 209.600,345.653 209.600 C 345.404 209.600,345.200 209.780,345.200 210.000 C 345.200 210.220,345.635 210.400,346.167 210.400 C 346.699 210.400,347.419 210.509,347.767 210.643 C 348.193 210.806,348.400 210.660,348.400 210.196 C 348.400 209.676,348.646 209.554,349.400 209.698 C 350.071 209.826,350.400 209.710,350.400 209.345 C 350.400 209.045,350.646 208.800,350.947 208.800 C 351.660 208.800,355.200 205.260,355.200 204.547 C 355.200 204.246,355.453 204.000,355.763 204.000 C 356.127 204.000,356.252 203.720,356.117 203.205 C 355.988 202.711,356.143 202.320,356.524 202.174 C 356.970 202.003,357.081 201.579,356.929 200.638 C 356.785 199.755,356.923 199.134,357.359 198.698 C 358.196 197.861,358.225 194.972,357.400 194.655 C 357.051 194.521,356.800 193.923,356.800 193.225 C 356.800 192.147,355.764 189.800,354.723 188.518 C 354.507 188.252,354.448 187.846,354.591 187.614 C 354.924 187.075,353.737 185.868,353.200 186.200 C 352.977 186.338,352.273 186.079,351.636 185.625 C 350.998 185.171,350.189 184.800,349.838 184.800 C 349.487 184.800,349.200 184.541,349.200 184.225 C 349.200 183.792,348.856 183.706,347.807 183.876 C 346.747 184.048,346.354 183.947,346.164 183.451 C 345.973 182.953,345.369 182.800,343.600 182.800 C 341.831 182.800,341.227 182.953,341.036 183.451 M271.492 183.442 C 271.331 183.602,271.200 184.009,271.200 184.347 C 271.200 184.797,271.318 184.842,271.645 184.515 C 271.890 184.270,272.021 183.863,271.937 183.610 C 271.852 183.357,271.652 183.281,271.492 183.442 M270.692 185.442 C 270.531 185.602,270.400 186.009,270.400 186.347 C 270.400 186.797,270.518 186.842,270.845 186.515 C 271.090 186.270,271.221 185.863,271.137 185.610 C 271.052 185.357,270.852 185.281,270.692 185.442 M268.292 191.842 C 268.131 192.002,268.000 192.409,268.000 192.747 C 268.000 193.197,268.118 193.242,268.445 192.915 C 268.690 192.670,268.821 192.263,268.737 192.010 C 268.652 191.757,268.452 191.681,268.292 191.842 M266.600 196.400 C 266.450 196.873,266.417 197.350,266.527 197.460 C 266.637 197.570,266.850 197.273,267.000 196.800 C 267.150 196.327,267.183 195.850,267.073 195.740 C 266.963 195.630,266.750 195.927,266.600 196.400 M323.004 203.211 C 323.249 203.985,323.171 204.086,322.471 203.903 C 321.978 203.774,321.567 203.909,321.438 204.244 C 321.046 205.266,309.586 205.032,309.315 203.996 C 309.121 203.253,308.988 203.298,307.551 204.596 C 306.697 205.368,305.715 206.000,305.370 206.000 C 304.611 206.000,303.605 206.943,303.587 207.671 C 303.580 207.962,303.310 208.549,302.987 208.976 C 301.634 210.766,301.811 210.800,312.300 210.794 C 321.330 210.788,326.901 210.234,324.838 209.546 C 324.553 209.451,324.250 208.040,324.081 206.026 C 323.891 203.753,323.625 202.606,323.258 202.485 C 322.858 202.352,322.791 202.543,323.004 203.211 " stroke="none" fill="#ffffff" fill-rule="evenodd"></path><path id="path1" d="M233.500 155.100 L 171.200 155.203 171.200 189.401 L 171.200 223.600 233.800 223.600 L 296.400 223.600 296.400 189.200 C 296.400 170.280,296.265 154.844,296.100 154.899 C 295.935 154.953,267.765 155.044,233.500 155.100 M188.600 174.592 C 188.600 175.193,188.206 175.453,186.900 175.711 C 185.758 175.937,185.200 176.255,185.200 176.680 C 185.200 177.706,192.528 191.568,192.937 191.315 C 193.579 190.918,197.547 182.223,197.992 180.235 C 198.521 177.877,197.925 176.427,196.200 175.876 C 192.084 174.561,193.546 173.645,199.627 173.729 C 205.815 173.814,206.014 173.998,203.219 177.056 C 201.833 178.571,200.197 181.278,197.816 185.992 L 194.400 192.753 194.400 200.148 C 194.400 208.141,194.567 208.800,196.586 208.800 C 197.559 208.800,198.272 209.888,197.684 210.476 C 196.873 211.287,181.800 210.661,181.800 209.816 C 181.800 209.247,182.170 208.957,183.152 208.756 C 185.083 208.361,185.187 208.011,185.194 201.857 L 185.200 196.314 180.122 186.857 C 177.020 181.080,174.525 176.918,173.711 176.161 C 171.351 173.969,171.853 173.799,180.705 173.804 C 188.274 173.809,188.600 173.841,188.600 174.592 M230.368 174.789 C 239.481 177.859,239.681 188.753,230.687 192.188 L 228.851 192.889 231.125 194.034 C 234.147 195.556,234.971 196.905,236.237 202.411 C 237.502 207.910,238.101 208.782,239.955 207.823 C 241.850 206.843,242.217 208.093,240.488 209.638 C 235.624 213.984,228.804 211.505,227.439 204.896 C 225.244 194.266,224.800 193.454,221.309 193.678 L 219.400 193.800 219.289 198.200 C 219.102 205.651,219.530 208.113,221.100 208.620 C 222.901 209.202,223.578 209.917,222.797 210.411 C 222.032 210.894,207.588 210.907,206.826 210.424 C 206.017 209.913,206.918 208.887,208.320 208.724 C 210.299 208.493,210.388 207.793,210.394 192.326 C 210.401 176.461,210.387 176.362,208.038 175.659 C 206.366 175.158,206.107 174.853,206.780 174.180 C 207.618 173.342,227.602 173.858,230.368 174.789 M255.041 174.102 C 255.276 174.247,257.609 179.504,260.224 185.783 C 262.840 192.062,265.101 197.200,265.249 197.200 C 265.521 197.200,265.997 196.007,271.312 182.000 L 274.273 174.200 280.036 173.972 C 284.295 173.803,285.943 173.872,286.347 174.233 C 287.116 174.921,286.644 175.465,285.016 175.771 C 282.853 176.176,282.735 177.150,282.877 193.462 C 283.012 209.030,282.973 208.800,285.434 208.800 C 286.368 208.800,287.059 209.901,286.484 210.476 C 285.673 211.287,270.200 210.661,270.200 209.816 C 270.200 209.244,270.572 208.957,271.580 208.750 C 274.012 208.253,274.000 208.329,274.000 194.124 C 274.000 187.016,273.938 181.200,273.862 181.200 C 273.714 181.200,272.610 184.012,266.431 200.132 C 264.253 205.814,262.356 210.578,262.216 210.717 C 261.444 211.489,260.084 208.826,254.767 196.122 C 251.541 188.416,248.701 181.772,248.454 181.356 C 248.119 180.790,248.031 183.934,248.103 193.883 C 248.212 208.796,247.997 207.793,251.297 208.782 C 252.847 209.246,253.280 210.130,252.167 210.557 C 251.160 210.944,242.471 210.838,242.222 210.436 C 241.824 209.791,242.431 208.879,243.424 208.630 C 245.736 208.049,245.800 207.593,245.800 191.683 L 245.800 177.130 244.856 176.365 C 244.336 175.944,243.582 175.600,243.179 175.600 C 242.252 175.600,241.809 174.911,242.333 174.282 C 242.765 173.763,254.229 173.600,255.041 174.102 M220.210 176.143 C 219.545 176.629,219.448 177.466,219.281 184.143 L 219.094 191.600 221.447 191.599 C 226.143 191.596,227.781 189.526,227.781 183.600 C 227.781 177.335,223.861 173.474,220.210 176.143 " stroke="none" fill="#fcfb54" fill-rule="evenodd"></path><path id="path2" d="M170.000 188.800 C 170.000 219.467,170.071 223.600,170.600 223.600 C 171.129 223.600,171.200 219.533,171.200 189.400 L 171.200 155.200 233.167 155.200 C 292.817 155.200,296.400 155.152,296.400 154.357 C 296.400 154.149,270.019 154.000,233.200 154.000 L 170.000 154.000 170.000 188.800 M342.400 184.800 C 342.400 185.020,342.670 185.200,343.000 185.200 C 343.330 185.200,343.600 185.020,343.600 184.800 C 343.600 184.580,343.330 184.400,343.000 184.400 C 342.670 184.400,342.400 184.580,342.400 184.800 M307.200 187.200 C 307.200 187.420,307.470 187.600,307.800 187.600 C 308.130 187.600,308.400 187.420,308.400 187.200 C 308.400 186.980,308.130 186.800,307.800 186.800 C 307.470 186.800,307.200 186.980,307.200 187.200 M322.800 190.000 C 322.800 190.880,322.980 191.600,323.200 191.600 C 323.420 191.600,323.600 190.880,323.600 190.000 C 323.600 189.120,323.420 188.400,323.200 188.400 C 322.980 188.400,322.800 189.120,322.800 190.000 M313.200 189.400 C 313.200 189.730,313.380 190.000,313.600 190.000 C 313.820 190.000,314.000 189.730,314.000 189.400 C 314.000 189.070,313.820 188.800,313.600 188.800 C 313.380 188.800,313.200 189.070,313.200 189.400 M338.000 190.200 C 338.000 190.530,338.180 190.800,338.400 190.800 C 338.620 190.800,338.800 190.530,338.800 190.200 C 338.800 189.870,338.620 189.600,338.400 189.600 C 338.180 189.600,338.000 189.870,338.000 190.200 M329.200 191.400 C 329.200 191.730,329.380 192.000,329.600 192.000 C 329.820 192.000,330.000 191.730,330.000 191.400 C 330.000 191.070,329.820 190.800,329.600 190.800 C 329.380 190.800,329.200 191.070,329.200 191.400 M348.400 192.400 C 348.400 192.840,348.580 193.200,348.800 193.200 C 349.020 193.200,349.200 192.840,349.200 192.400 C 349.200 191.960,349.020 191.600,348.800 191.600 C 348.580 191.600,348.400 191.960,348.400 192.400 M357.200 192.200 C 357.200 192.530,357.380 192.800,357.600 192.800 C 357.820 192.800,358.000 192.530,358.000 192.200 C 358.000 191.870,357.820 191.600,357.600 191.600 C 357.380 191.600,357.200 191.870,357.200 192.200 M322.000 193.400 C 322.000 193.730,322.180 194.000,322.400 194.000 C 322.620 194.000,322.800 193.730,322.800 193.400 C 322.800 193.070,322.620 192.800,322.400 192.800 C 322.180 192.800,322.000 193.070,322.000 193.400 M313.200 193.800 C 313.200 194.130,313.380 194.400,313.600 194.400 C 313.820 194.400,314.000 194.130,314.000 193.800 C 314.000 193.470,313.820 193.200,313.600 193.200 C 313.380 193.200,313.200 193.470,313.200 193.800 M328.400 194.000 C 328.400 194.440,328.580 194.800,328.800 194.800 C 329.020 194.800,329.200 194.440,329.200 194.000 C 329.200 193.560,329.020 193.200,328.800 193.200 C 328.580 193.200,328.400 193.560,328.400 194.000 M337.200 194.600 C 337.200 195.150,337.380 195.600,337.600 195.600 C 337.820 195.600,338.000 195.150,338.000 194.600 C 338.000 194.050,337.820 193.600,337.600 193.600 C 337.380 193.600,337.200 194.050,337.200 194.600 M312.400 196.200 C 312.400 196.530,312.580 196.800,312.800 196.800 C 313.020 196.800,313.200 196.530,313.200 196.200 C 313.200 195.870,313.020 195.600,312.800 195.600 C 312.580 195.600,312.400 195.870,312.400 196.200 M337.200 200.000 C 337.200 200.660,337.380 201.200,337.600 201.200 C 337.820 201.200,338.000 200.660,338.000 200.000 C 338.000 199.340,337.820 198.800,337.600 198.800 C 337.380 198.800,337.200 199.340,337.200 200.000 M348.400 201.200 C 348.400 201.640,348.580 202.000,348.800 202.000 C 349.020 202.000,349.200 201.640,349.200 201.200 C 349.200 200.760,349.020 200.400,348.800 200.400 C 348.580 200.400,348.400 200.760,348.400 201.200 M312.800 201.600 C 312.800 201.820,313.070 202.000,313.400 202.000 C 313.730 202.000,314.000 201.820,314.000 201.600 C 314.000 201.380,313.730 201.200,313.400 201.200 C 313.070 201.200,312.800 201.380,312.800 201.600 M346.800 206.600 C 346.800 206.930,346.980 207.200,347.200 207.200 C 347.420 207.200,347.600 206.930,347.600 206.600 C 347.600 206.270,347.420 206.000,347.200 206.000 C 346.980 206.000,346.800 206.270,346.800 206.600 M353.592 207.410 C 352.901 208.243,353.411 208.647,354.181 207.876 C 354.521 207.536,354.800 207.154,354.800 207.029 C 354.800 206.584,354.091 206.808,353.592 207.410 M301.700 208.198 C 301.125 208.852,301.031 210.000,301.553 210.000 C 301.748 210.000,302.018 209.685,302.154 209.300 C 302.289 208.915,302.505 208.375,302.634 208.100 C 302.948 207.426,302.322 207.492,301.700 208.198 M322.800 211.200 C 322.800 211.420,323.340 211.600,324.000 211.600 C 324.660 211.600,325.200 211.420,325.200 211.200 C 325.200 210.980,324.660 210.800,324.000 210.800 C 323.340 210.800,322.800 210.980,322.800 211.200 M338.000 211.200 C 338.000 211.420,338.270 211.600,338.600 211.600 C 338.930 211.600,339.200 211.420,339.200 211.200 C 339.200 210.980,338.930 210.800,338.600 210.800 C 338.270 210.800,338.000 210.980,338.000 211.200 " stroke="none" fill="#ffffff" fill-rule="evenodd"></path><path id="path3" d="M172.590 174.373 C 172.464 174.699,172.811 175.301,173.397 175.773 C 173.962 176.228,174.777 177.140,175.209 177.800 C 175.641 178.460,175.996 178.783,175.997 178.517 C 175.999 178.251,175.280 177.276,174.399 176.351 C 173.519 175.425,172.865 174.602,172.946 174.520 C 173.375 174.091,188.164 174.291,188.309 174.728 C 188.407 175.021,188.009 175.200,187.257 175.200 C 186.592 175.200,185.932 175.387,185.790 175.616 C 185.623 175.887,185.929 175.945,186.666 175.783 C 188.653 175.345,188.862 175.217,188.726 174.512 C 188.542 173.557,172.956 173.422,172.590 174.373 M194.623 173.963 C 194.542 174.093,196.750 174.231,199.528 174.270 C 204.760 174.342,205.621 174.644,203.871 175.790 C 202.951 176.393,200.000 180.432,200.000 181.089 C 200.000 181.254,200.658 180.402,201.462 179.195 C 202.266 177.988,203.449 176.550,204.090 176.000 C 206.193 174.196,205.439 173.805,199.780 173.763 C 197.024 173.742,194.704 173.832,194.623 173.963 M206.971 174.120 C 205.994 174.667,206.336 175.152,208.021 175.606 C 209.062 175.886,209.768 176.356,209.995 176.921 C 210.258 177.573,210.356 177.625,210.375 177.123 C 210.404 176.326,208.942 175.200,207.878 175.200 C 207.468 175.200,207.197 175.008,207.275 174.774 C 207.371 174.486,210.774 174.360,217.788 174.387 C 223.492 174.408,228.052 174.319,227.921 174.188 C 227.556 173.822,207.619 173.757,206.971 174.120 M242.304 174.317 C 241.764 174.966,242.230 175.415,243.800 175.761 C 244.678 175.954,244.839 175.915,244.400 175.618 C 244.070 175.395,243.485 175.209,243.100 175.206 C 242.715 175.203,242.400 175.029,242.400 174.821 C 242.400 174.472,253.052 174.034,254.509 174.322 C 254.848 174.389,255.530 175.469,256.025 176.722 C 256.520 177.975,257.090 179.180,257.291 179.400 C 257.665 179.808,256.289 176.088,255.569 174.742 C 255.350 174.334,254.953 173.987,254.686 173.971 C 249.830 173.682,242.666 173.882,242.304 174.317 M279.600 174.010 L 274.200 174.255 280.186 174.287 C 284.164 174.308,286.222 174.466,286.320 174.759 C 286.401 175.003,286.015 175.200,285.457 175.200 C 284.902 175.200,284.332 175.387,284.190 175.616 C 283.893 176.096,285.977 175.701,286.563 175.165 C 287.002 174.765,286.102 173.564,285.451 173.682 C 285.203 173.727,282.570 173.875,279.600 174.010 M229.200 174.800 C 229.530 175.013,230.160 175.178,230.600 175.166 L 231.400 175.144 230.600 174.800 C 229.404 174.286,228.405 174.286,229.200 174.800 M273.450 176.391 C 272.547 178.647,272.687 178.983,273.637 176.842 C 274.066 175.875,274.345 175.012,274.258 174.925 C 274.171 174.838,273.808 175.498,273.450 176.391 M195.400 175.600 C 196.501 176.073,196.892 176.073,196.600 175.600 C 196.464 175.380,195.958 175.213,195.476 175.228 C 194.631 175.255,194.629 175.269,195.400 175.600 M219.830 175.967 C 219.428 176.411,219.210 177.127,219.313 177.667 C 219.485 178.569,219.493 178.566,219.546 177.580 C 219.748 173.785,225.926 175.286,227.428 179.496 C 227.747 180.390,227.971 180.676,227.981 180.200 C 228.049 176.793,221.949 173.625,219.830 175.967 M184.837 176.600 C 184.806 177.351,188.231 184.400,188.626 184.400 C 188.727 184.400,188.061 182.915,187.146 181.100 C 186.232 179.285,185.345 177.350,185.176 176.800 C 184.925 175.984,184.863 175.947,184.837 176.600 M245.507 177.200 C 245.668 177.970,245.800 184.863,245.800 192.519 C 245.800 200.386,245.938 205.777,246.117 204.919 C 246.644 202.395,246.284 177.536,245.707 176.600 C 245.280 175.908,245.253 175.988,245.507 177.200 M234.400 177.200 C 234.400 177.420,234.541 177.600,234.714 177.600 C 235.520 177.600,236.616 180.388,236.835 183.000 L 237.071 185.800 237.135 183.178 C 237.192 180.895,237.046 180.314,236.009 178.678 C 234.830 176.820,234.400 176.424,234.400 177.200 M282.595 178.100 C 282.463 178.815,282.410 185.718,282.477 193.439 C 282.611 208.726,282.578 208.512,284.923 209.120 C 288.372 210.014,286.403 210.400,278.400 210.400 C 270.300 210.400,268.281 209.978,272.079 209.080 C 273.006 208.861,273.653 208.402,273.948 207.754 C 274.462 206.626,274.608 179.600,274.100 179.600 C 273.935 179.600,273.853 185.765,273.918 193.300 C 274.049 208.414,274.075 208.240,271.580 208.750 C 270.572 208.957,270.200 209.244,270.200 209.816 C 270.200 210.717,285.683 211.277,286.551 210.409 C 287.094 209.866,286.376 209.164,284.723 208.620 C 282.832 207.998,282.740 207.133,282.877 191.156 C 282.945 183.260,282.963 176.800,282.918 176.800 C 282.873 176.800,282.728 177.385,282.595 178.100 M210.580 192.400 C 210.580 200.210,210.634 203.405,210.699 199.500 C 210.765 195.595,210.765 189.205,210.699 185.300 C 210.634 181.395,210.580 184.590,210.580 192.400 M177.009 181.102 C 177.625 182.258,178.199 183.134,178.284 183.049 C 178.470 182.863,176.901 179.968,176.306 179.400 C 176.076 179.180,176.392 179.946,177.009 181.102 M247.694 192.624 L 247.788 206.200 247.900 193.480 C 247.972 185.251,248.151 180.846,248.406 181.003 C 248.983 181.360,248.864 180.718,248.187 179.824 C 247.668 179.137,247.611 180.614,247.694 192.624 M198.046 180.067 C 198.021 180.434,197.896 181.064,197.770 181.467 C 197.552 182.162,197.563 182.163,197.997 181.487 C 198.248 181.096,198.373 180.466,198.273 180.087 C 198.111 179.468,198.088 179.466,198.046 180.067 M270.680 183.680 C 270.076 185.239,269.646 186.580,269.726 186.660 C 269.806 186.740,270.370 185.534,270.980 183.980 C 271.590 182.426,272.019 181.085,271.934 181.000 C 271.849 180.915,271.284 182.121,270.680 183.680 M228.120 183.600 C 228.120 184.810,228.195 185.305,228.287 184.700 C 228.378 184.095,228.378 183.105,228.287 182.500 C 228.195 181.895,228.120 182.390,228.120 183.600 M309.200 183.200 C 309.200 183.420,309.470 183.600,309.800 183.600 C 310.130 183.600,310.400 183.420,310.400 183.200 C 310.400 182.980,310.130 182.800,309.800 182.800 C 309.470 182.800,309.200 182.980,309.200 183.200 M338.800 183.200 C 338.800 183.420,339.070 183.600,339.400 183.600 C 339.730 183.600,340.000 183.420,340.000 183.200 C 340.000 182.980,339.730 182.800,339.400 182.800 C 339.070 182.800,338.800 182.980,338.800 183.200 M347.200 183.200 C 347.200 183.420,347.470 183.600,347.800 183.600 C 348.130 183.600,348.400 183.420,348.400 183.200 C 348.400 182.980,348.130 182.800,347.800 182.800 C 347.470 182.800,347.200 182.980,347.200 183.200 M271.464 185.907 C 270.879 187.399,270.409 188.795,270.421 189.010 C 270.432 189.224,270.979 188.072,271.636 186.449 C 272.294 184.826,272.763 183.430,272.680 183.347 C 272.597 183.263,272.049 184.416,271.464 185.907 M179.420 185.640 C 179.989 186.762,180.534 187.599,180.633 187.501 C 180.823 187.310,178.851 183.600,178.559 183.600 C 178.464 183.600,178.852 184.518,179.420 185.640 M250.330 185.400 C 252.118 189.938,252.507 190.826,252.650 190.683 C 252.843 190.490,250.387 184.327,249.907 183.800 C 249.707 183.580,249.897 184.300,250.330 185.400 M306.800 184.000 C 306.800 184.220,307.070 184.400,307.400 184.400 C 307.730 184.400,308.000 184.220,308.000 184.000 C 308.000 183.780,307.730 183.600,307.400 183.600 C 307.070 183.600,306.800 183.780,306.800 184.000 M336.400 184.000 C 336.400 184.220,336.670 184.400,337.000 184.400 C 337.330 184.400,337.600 184.220,337.600 184.000 C 337.600 183.780,337.330 183.600,337.000 183.600 C 336.670 183.600,336.400 183.780,336.400 184.000 M349.600 184.000 C 349.600 184.220,349.870 184.400,350.200 184.400 C 350.530 184.400,350.800 184.220,350.800 184.000 C 350.800 183.780,350.530 183.600,350.200 183.600 C 349.870 183.600,349.600 183.780,349.600 184.000 M259.350 184.400 C 259.697 185.698,261.740 190.623,262.088 191.000 C 262.291 191.220,262.070 190.410,261.598 189.200 C 260.645 186.762,259.099 183.460,259.350 184.400 M342.184 184.427 C 342.039 184.661,342.028 184.961,342.160 185.093 C 342.292 185.225,342.400 185.123,342.400 184.867 C 342.400 184.241,343.486 184.268,343.712 184.900 C 343.810 185.175,344.023 185.277,344.185 185.127 C 344.646 184.700,344.034 184.000,343.200 184.000 C 342.786 184.000,342.329 184.192,342.184 184.427 M334.800 184.800 C 334.800 185.020,335.070 185.200,335.400 185.200 C 335.730 185.200,336.000 185.020,336.000 184.800 C 336.000 184.580,335.730 184.400,335.400 184.400 C 335.070 184.400,334.800 184.580,334.800 184.800 M345.200 185.429 C 345.200 185.725,346.275 186.800,346.571 186.800 C 347.089 186.800,346.752 185.667,346.167 185.443 C 345.381 185.141,345.200 185.138,345.200 185.429 M235.693 187.607 C 234.602 189.502,232.674 191.021,230.138 191.984 C 227.895 192.836,227.529 193.429,229.083 193.695 C 229.697 193.801,230.560 194.005,231.000 194.150 C 231.440 194.295,231.118 194.077,230.284 193.667 L 228.769 192.921 230.627 192.211 C 233.237 191.214,237.530 186.997,236.739 186.206 C 236.655 186.122,236.185 186.753,235.693 187.607 M189.600 186.477 C 189.600 188.375,193.083 192.558,193.532 191.200 C 193.691 190.719,193.615 190.695,193.152 191.077 C 192.675 191.470,192.405 191.226,191.607 189.677 C 190.511 187.550,189.600 186.098,189.600 186.477 M227.645 187.000 C 227.489 189.601,225.294 191.282,221.600 191.630 L 219.000 191.874 221.441 191.937 C 224.930 192.027,228.487 189.249,227.878 186.910 C 227.719 186.300,227.686 186.312,227.645 187.000 M311.600 187.200 C 311.600 187.420,311.960 187.600,312.400 187.600 C 312.840 187.600,313.200 187.793,313.200 188.029 C 313.200 188.264,313.470 188.727,313.800 189.057 C 314.809 190.066,314.466 188.988,313.419 187.858 C 312.418 186.778,311.600 186.482,311.600 187.200 M182.941 192.059 L 185.200 196.319 185.200 201.931 C 185.200 206.499,185.083 207.660,184.571 208.171 C 184.226 208.517,184.129 208.800,184.357 208.800 C 185.280 208.800,185.600 206.990,185.600 201.773 L 185.600 196.294 183.555 192.447 C 182.430 190.331,181.323 188.420,181.095 188.200 C 180.868 187.980,181.698 189.717,182.941 192.059 M195.380 190.040 C 194.811 191.162,194.413 192.147,194.495 192.229 C 194.577 192.311,195.127 191.393,195.718 190.189 C 196.308 188.985,196.706 188.000,196.602 188.000 C 196.498 188.000,195.948 188.918,195.380 190.040 M355.600 189.000 C 355.600 189.330,355.780 189.600,356.000 189.600 C 356.220 189.600,356.400 189.330,356.400 189.000 C 356.400 188.670,356.220 188.400,356.000 188.400 C 355.780 188.400,355.600 188.670,355.600 189.000 M322.493 190.000 C 322.493 190.770,322.575 191.085,322.676 190.700 C 322.776 190.315,322.776 189.685,322.676 189.300 C 322.575 188.915,322.493 189.230,322.493 190.000 M267.480 192.080 C 266.876 193.639,266.446 194.980,266.526 195.060 C 266.606 195.140,267.170 193.934,267.780 192.380 C 268.390 190.826,268.819 189.485,268.734 189.400 C 268.649 189.315,268.084 190.521,267.480 192.080 M302.000 190.400 C 302.000 190.620,302.360 190.800,302.800 190.800 C 303.240 190.800,303.600 190.620,303.600 190.400 C 303.600 190.180,303.240 190.000,302.800 190.000 C 302.360 190.000,302.000 190.180,302.000 190.400 M348.400 191.200 C 348.400 191.420,348.580 191.600,348.800 191.600 C 349.020 191.600,349.200 191.900,349.200 192.267 C 349.200 192.633,349.306 192.827,349.437 192.697 C 349.770 192.363,349.223 190.800,348.773 190.800 C 348.568 190.800,348.400 190.980,348.400 191.200 M268.264 194.307 C 267.679 195.799,267.209 197.195,267.221 197.410 C 267.232 197.624,267.779 196.472,268.436 194.849 C 269.094 193.226,269.563 191.830,269.480 191.747 C 269.397 191.663,268.849 192.816,268.264 194.307 M356.806 192.271 C 356.818 192.884,357.555 193.778,357.826 193.507 C 357.974 193.359,357.804 192.947,357.448 192.590 C 357.091 192.234,356.803 192.091,356.806 192.271 M321.590 193.426 C 321.105 194.703,321.105 194.800,321.600 194.800 C 321.820 194.800,322.000 194.365,322.000 193.833 C 322.000 193.302,322.225 192.776,322.500 192.665 C 322.893 192.506,322.891 192.456,322.490 192.432 C 322.210 192.414,321.805 192.862,321.590 193.426 M336.994 193.629 C 336.845 194.304,336.831 194.964,336.962 195.095 C 337.093 195.226,337.200 194.943,337.200 194.467 C 337.200 193.990,337.380 193.600,337.600 193.600 C 337.820 193.600,338.000 193.330,338.000 193.000 C 338.000 191.917,337.269 192.373,336.994 193.629 M194.083 200.024 C 193.993 208.105,194.101 208.575,196.174 209.130 C 199.495 210.018,197.588 210.400,189.833 210.400 C 182.167 210.400,180.672 210.139,182.900 209.191 C 183.787 208.814,183.785 208.809,182.800 208.904 C 182.099 208.971,181.800 209.239,181.800 209.800 C 181.800 210.659,196.860 211.300,197.684 210.476 C 198.251 209.909,197.574 208.800,196.657 208.794 C 194.683 208.780,194.614 208.523,194.383 200.315 L 194.166 192.600 194.083 200.024 M219.452 193.516 C 219.344 193.690,219.918 193.767,220.728 193.687 C 222.942 193.469,223.205 193.267,221.324 193.232 C 220.402 193.214,219.559 193.342,219.452 193.516 M254.399 195.185 C 255.241 197.334,256.287 199.330,255.874 198.000 C 255.398 196.467,254.243 193.760,253.911 193.400 C 253.709 193.180,253.928 193.983,254.399 195.185 M223.642 193.865 C 223.995 193.959,224.521 194.478,224.809 195.018 C 225.098 195.557,225.419 195.915,225.521 195.812 C 225.903 195.430,224.357 193.602,223.691 193.646 C 223.101 193.686,223.094 193.718,223.642 193.865 M329.200 194.133 C 329.200 194.500,329.020 194.800,328.800 194.800 C 328.580 194.800,328.400 194.980,328.400 195.200 C 328.400 195.420,328.568 195.600,328.773 195.600 C 329.223 195.600,329.770 194.037,329.437 193.703 C 329.306 193.573,329.200 193.767,329.200 194.133 M233.300 195.938 C 234.125 196.853,234.800 197.812,234.800 198.068 C 234.800 198.324,234.916 198.417,235.058 198.276 C 235.404 197.930,233.662 195.431,232.627 194.787 C 232.172 194.505,232.475 195.022,233.300 195.938 M264.203 196.200 C 264.361 196.640,264.581 197.315,264.692 197.700 C 264.803 198.085,265.052 198.400,265.247 198.400 C 265.762 198.400,265.694 198.165,264.757 196.710 C 264.294 195.989,264.044 195.760,264.203 196.200 M225.840 197.466 C 226.208 198.999,226.400 199.144,226.400 197.890 C 226.400 197.317,226.213 196.732,225.984 196.590 C 225.711 196.421,225.662 196.723,225.840 197.466 M316.577 198.567 C 316.150 198.879,315.936 199.269,316.101 199.434 C 316.265 199.599,316.400 199.523,316.400 199.267 C 316.400 199.010,316.760 198.800,317.200 198.800 C 317.640 198.800,318.000 198.620,318.000 198.400 C 318.000 197.841,317.488 197.901,316.577 198.567 M235.268 199.400 C 235.262 199.840,235.411 200.560,235.600 201.000 C 236.038 202.019,236.038 200.968,235.600 199.600 C 235.343 198.796,235.277 198.757,235.268 199.400 M310.800 199.600 C 310.800 200.040,310.590 200.400,310.333 200.400 C 310.077 200.400,310.001 200.535,310.166 200.699 C 310.331 200.864,310.721 200.650,311.033 200.223 C 311.699 199.312,311.759 198.800,311.200 198.800 C 310.980 198.800,310.800 199.160,310.800 199.600 M226.673 200.800 C 226.804 201.790,226.976 202.675,227.056 202.767 C 227.357 203.114,227.128 200.564,226.790 199.800 C 226.553 199.266,226.514 199.598,226.673 200.800 M336.865 199.800 C 336.788 200.934,337.229 202.400,337.647 202.400 C 337.841 202.400,338.000 202.130,338.000 201.800 C 338.000 201.470,337.832 201.200,337.627 201.200 C 337.421 201.200,337.178 200.705,337.087 200.100 C 336.984 199.424,336.899 199.309,336.865 199.800 M265.064 202.707 C 264.479 204.199,264.009 205.595,264.021 205.810 C 264.032 206.024,264.579 204.872,265.236 203.249 C 265.894 201.626,266.363 200.230,266.280 200.147 C 266.197 200.063,265.649 201.216,265.064 202.707 M357.200 200.600 C 357.200 200.930,357.380 201.200,357.600 201.200 C 357.820 201.200,358.000 200.930,358.000 200.600 C 358.000 200.270,357.820 200.000,357.600 200.000 C 357.380 200.000,357.200 200.270,357.200 200.600 M313.200 200.800 C 312.732 201.102,312.843 201.189,313.700 201.194 C 314.305 201.197,314.800 201.020,314.800 200.800 C 314.800 200.294,313.983 200.294,313.200 200.800 M257.599 202.785 C 258.441 204.934,259.487 206.930,259.074 205.600 C 258.598 204.067,257.443 201.360,257.111 201.000 C 256.909 200.780,257.128 201.583,257.599 202.785 M349.200 201.333 C 349.200 201.700,349.020 202.000,348.800 202.000 C 348.580 202.000,348.400 202.180,348.400 202.400 C 348.400 202.620,348.568 202.800,348.773 202.800 C 349.223 202.800,349.770 201.237,349.437 200.903 C 349.306 200.773,349.200 200.967,349.200 201.333 M322.800 201.553 C 322.800 201.748,323.205 202.015,323.700 202.148 C 325.024 202.503,325.200 202.462,325.200 201.800 C 325.200 201.400,324.800 201.200,324.000 201.200 C 323.340 201.200,322.800 201.359,322.800 201.553 M236.028 202.833 C 236.044 203.365,236.219 204.160,236.419 204.600 C 236.671 205.158,236.707 204.915,236.538 203.800 C 236.255 201.943,235.987 201.436,236.028 202.833 M310.000 203.400 C 309.698 203.763,309.666 204.000,309.918 204.000 C 310.653 204.000,311.600 203.525,311.600 203.157 C 311.600 202.585,310.543 202.745,310.000 203.400 M227.287 203.800 C 227.291 204.240,227.432 205.140,227.600 205.800 C 227.874 206.878,227.906 206.898,227.913 206.000 C 227.917 205.450,227.776 204.550,227.600 204.000 C 227.349 203.216,227.281 203.173,227.287 203.800 M338.000 205.000 C 338.000 205.330,338.180 205.600,338.400 205.600 C 338.620 205.600,338.800 205.330,338.800 205.000 C 338.800 204.670,338.620 204.400,338.400 204.400 C 338.180 204.400,338.000 204.670,338.000 205.000 M236.854 206.230 C 236.746 207.885,238.389 208.850,240.209 208.202 C 241.084 207.890,241.473 207.627,241.074 207.618 C 240.674 207.608,239.984 207.794,239.540 208.032 C 238.583 208.544,237.350 207.656,237.077 206.258 C 236.913 205.422,236.908 205.421,236.854 206.230 M331.100 205.865 C 331.375 205.976,331.600 206.335,331.600 206.662 C 331.600 206.989,331.857 207.514,332.171 207.829 C 332.486 208.143,333.011 208.400,333.338 208.400 C 333.665 208.400,334.024 208.625,334.135 208.900 C 334.294 209.294,334.344 209.292,334.368 208.891 C 334.386 208.612,333.970 208.187,333.444 207.947 C 332.918 207.708,332.292 207.082,332.053 206.556 C 331.813 206.030,331.388 205.614,331.109 205.632 C 330.708 205.656,330.706 205.706,331.100 205.865 M219.254 206.851 C 219.224 207.430,219.514 208.148,219.900 208.451 C 220.509 208.929,220.540 208.922,220.138 208.400 C 219.884 208.070,219.594 207.350,219.493 206.800 L 219.309 205.800 219.254 206.851 M248.028 206.838 C 247.994 207.601,249.233 208.806,250.031 208.786 C 250.344 208.778,250.159 208.528,249.620 208.229 C 249.082 207.931,248.509 207.352,248.349 206.943 C 248.119 206.359,248.050 206.337,248.028 206.838 M353.398 207.202 C 352.375 208.332,352.810 208.437,353.886 207.320 C 354.373 206.814,354.626 206.400,354.448 206.400 C 354.270 206.400,353.797 206.761,353.398 207.202 M244.900 207.588 C 244.627 208.026,243.966 208.494,243.431 208.628 C 242.432 208.879,241.823 209.790,242.222 210.436 C 242.515 210.910,251.624 210.899,252.374 210.424 C 253.098 209.966,252.268 208.786,251.251 208.825 C 250.822 208.842,250.916 208.978,251.526 209.222 C 253.424 209.983,251.885 210.400,247.176 210.400 C 242.309 210.400,241.335 210.054,243.500 209.096 C 244.880 208.485,245.704 207.713,245.531 207.192 C 245.457 206.972,245.174 207.150,244.900 207.588 M228.012 207.494 C 228.005 207.765,228.495 208.494,229.100 209.113 C 229.705 209.732,229.910 209.870,229.555 209.419 C 229.200 208.969,228.710 208.240,228.467 207.800 C 228.223 207.360,228.019 207.222,228.012 207.494 M302.374 208.714 C 302.061 209.421,301.669 210.000,301.502 210.000 C 301.336 210.000,301.200 210.180,301.200 210.400 C 301.200 211.161,301.947 210.797,302.227 209.900 C 302.381 209.405,302.686 208.886,302.903 208.746 C 303.120 208.607,303.218 208.253,303.120 207.961 C 303.017 207.652,302.704 207.969,302.374 208.714 M345.660 208.242 C 344.931 209.066,345.400 209.457,346.181 208.676 C 346.521 208.336,346.800 207.954,346.800 207.829 C 346.800 207.409,346.206 207.624,345.660 208.242 M240.614 209.185 C 240.223 209.617,239.283 210.175,238.525 210.425 C 237.767 210.675,237.229 210.962,237.330 211.063 C 237.657 211.390,240.178 210.135,240.962 209.255 C 241.381 208.785,241.634 208.400,241.524 208.400 C 241.414 208.400,241.004 208.753,240.614 209.185 M260.267 209.079 C 260.638 210.120,261.230 210.802,261.749 210.788 C 261.997 210.781,261.885 210.592,261.500 210.368 C 261.115 210.144,260.800 209.710,260.800 209.404 C 260.800 209.098,260.622 208.737,260.405 208.603 C 260.169 208.457,260.113 208.650,260.267 209.079 M206.775 209.430 C 205.831 210.568,207.132 210.788,214.800 210.788 C 218.870 210.788,222.458 210.624,222.774 210.424 C 223.567 209.922,222.625 208.788,221.451 208.832 C 220.729 208.858,220.767 208.924,221.702 209.266 C 223.979 210.097,222.131 210.400,214.776 210.400 C 207.397 210.400,205.836 210.122,208.100 209.212 C 208.983 208.857,208.984 208.850,208.149 208.825 C 207.681 208.811,207.062 209.084,206.775 209.430 M342.400 209.557 C 342.400 210.024,343.568 210.467,344.036 210.178 C 344.741 209.742,344.388 209.200,343.400 209.200 C 342.850 209.200,342.400 209.361,342.400 209.557 M346.400 211.200 C 346.400 211.420,346.670 211.600,347.000 211.600 C 347.330 211.600,347.600 211.420,347.600 211.200 C 347.600 210.980,347.330 210.800,347.000 210.800 C 346.670 210.800,346.400 210.980,346.400 211.200 M233.900 211.482 C 234.395 211.578,235.205 211.578,235.700 211.482 C 236.195 211.387,235.790 211.309,234.800 211.309 C 233.810 211.309,233.405 211.387,233.900 211.482 " stroke="none" fill="#ffffff" fill-rule="evenodd"></path><path id="path4" d="M187.107 174.289 C 187.606 174.380,187.910 174.622,187.783 174.827 C 187.656 175.032,187.758 175.200,188.010 175.200 C 188.922 175.200,188.112 174.199,187.169 174.161 C 186.267 174.125,186.262 174.134,187.107 174.289 M194.667 174.267 C 194.200 174.733,194.379 175.200,195.024 175.200 C 195.367 175.200,195.544 175.032,195.417 174.827 C 195.290 174.622,195.684 174.379,196.293 174.287 C 197.386 174.122,197.384 174.119,196.167 174.060 C 195.488 174.027,194.813 174.120,194.667 174.267 M203.907 174.334 C 204.276 174.568,203.979 175.112,202.810 176.341 C 201.400 177.824,199.703 180.400,200.137 180.400 C 200.223 180.400,200.786 179.635,201.388 178.700 C 201.990 177.765,203.031 176.532,203.702 175.961 C 204.862 174.972,204.949 173.992,203.876 174.006 C 203.532 174.011,203.541 174.102,203.907 174.334 M226.433 174.547 C 226.525 174.628,227.320 174.814,228.200 174.962 C 229.346 175.154,229.630 175.114,229.200 174.821 C 228.660 174.453,226.032 174.193,226.433 174.547 M174.394 176.203 C 175.987 178.121,176.121 178.245,175.686 177.396 C 175.459 176.953,174.852 176.234,174.337 175.798 C 173.433 175.034,173.435 175.048,174.394 176.203 M184.880 175.680 C 184.616 175.944,184.421 176.529,184.446 176.980 C 184.491 177.772,184.500 177.773,184.693 177.010 C 184.803 176.575,185.187 175.996,185.547 175.723 C 185.906 175.449,186.011 175.220,185.780 175.213 C 185.549 175.206,185.144 175.416,184.880 175.680 M197.300 176.046 C 198.241 176.748,198.405 177.165,198.434 178.933 C 198.466 180.810,198.502 180.890,198.832 179.800 C 199.410 177.896,198.106 175.226,196.600 175.225 C 196.380 175.225,196.695 175.595,197.300 176.046 M209.656 175.964 L 210.600 176.729 210.600 191.664 C 210.600 199.879,210.472 207.140,210.317 207.800 C 210.038 208.980,210.043 208.978,210.631 207.669 C 211.640 205.418,211.290 177.203,210.238 176.042 C 209.819 175.579,209.304 175.200,209.094 175.200 C 208.883 175.200,209.136 175.544,209.656 175.964 M225.104 175.998 C 225.821 176.435,226.765 177.379,227.202 178.096 C 228.137 179.630,228.268 179.279,227.393 177.587 C 227.060 176.942,226.258 176.140,225.613 175.807 C 223.921 174.932,223.570 175.063,225.104 175.998 M244.705 175.690 C 245.203 175.930,245.771 176.683,245.969 177.363 C 246.214 178.206,246.339 178.342,246.364 177.789 C 246.413 176.691,245.310 175.194,244.477 175.227 C 243.964 175.248,244.019 175.360,244.705 175.690 M282.972 176.187 C 282.616 176.730,282.418 177.405,282.531 177.687 C 282.663 178.015,282.748 177.953,282.768 177.516 C 282.786 177.139,283.194 176.464,283.675 176.016 C 284.157 175.567,284.341 175.200,284.085 175.200 C 283.828 175.200,283.327 175.644,282.972 176.187 M233.761 177.272 C 234.609 177.971,235.636 179.276,236.043 180.172 C 236.450 181.067,236.786 181.530,236.790 181.200 C 236.806 179.845,233.716 176.002,232.609 176.000 C 232.394 176.000,232.912 176.572,233.761 177.272 M218.703 178.800 C 218.145 182.944,218.331 191.445,218.993 191.994 C 219.516 192.428,219.516 192.584,218.993 193.332 C 218.539 193.979,218.406 195.403,218.424 199.389 C 218.462 207.663,218.795 208.813,221.400 209.660 C 221.840 209.803,218.870 209.924,214.800 209.929 C 210.730 209.933,207.670 209.847,208.000 209.737 C 208.330 209.627,208.851 209.457,209.157 209.359 C 209.464 209.261,209.624 209.090,209.513 208.979 C 209.195 208.662,207.200 209.534,207.200 209.990 C 207.200 210.455,222.084 210.583,222.545 210.122 C 222.698 209.969,222.053 209.474,221.111 209.022 L 219.400 208.200 219.400 200.800 L 219.400 193.400 221.741 193.449 C 223.870 193.494,224.279 192.886,222.200 192.766 C 221.533 192.728,221.566 192.667,222.400 192.400 C 223.188 192.148,222.956 192.071,221.309 192.040 L 219.217 192.000 219.109 184.300 C 219.032 178.841,218.914 177.240,218.703 178.800 M273.000 178.400 C 272.850 178.873,272.817 179.350,272.927 179.460 C 273.037 179.570,273.250 179.273,273.400 178.800 C 273.550 178.327,273.583 177.850,273.473 177.740 C 273.363 177.630,273.150 177.927,273.000 178.400 M186.621 181.642 C 187.627 183.645,188.522 185.211,188.610 185.123 C 188.794 184.939,185.251 178.000,184.974 178.000 C 184.874 178.000,185.615 179.639,186.621 181.642 M247.206 192.100 C 247.209 199.855,247.344 206.408,247.506 206.663 C 247.668 206.917,247.747 200.797,247.681 193.063 C 247.575 180.431,247.624 179.081,248.169 179.800 C 248.897 180.762,248.972 180.414,248.336 179.019 C 247.341 176.836,247.200 178.472,247.206 192.100 M176.009 178.700 C 176.014 178.865,176.385 179.450,176.833 180.000 L 177.648 181.000 177.014 179.700 C 176.411 178.465,175.989 178.045,176.009 178.700 M228.191 183.600 C 228.191 185.846,228.310 187.260,228.456 186.742 C 228.601 186.224,228.720 184.810,228.720 183.600 C 228.720 182.390,228.601 180.976,228.456 180.458 C 228.310 179.940,228.191 181.354,228.191 183.600 M248.818 180.851 C 248.780 181.380,250.057 184.076,250.252 183.881 C 250.365 183.768,250.093 182.984,249.647 182.138 C 249.200 181.292,248.827 180.713,248.818 180.851 M197.800 182.000 C 197.650 182.473,197.617 182.950,197.727 183.060 C 197.837 183.170,198.050 182.873,198.200 182.400 C 198.350 181.927,198.383 181.450,198.273 181.340 C 198.163 181.230,197.950 181.527,197.800 182.000 M257.600 181.351 C 257.600 181.818,258.877 184.457,259.029 184.305 C 259.238 184.095,258.088 181.200,257.795 181.200 C 257.688 181.200,257.600 181.268,257.600 181.351 M271.473 182.553 C 271.103 183.518,271.129 183.691,271.600 183.400 C 271.820 183.264,272.003 183.388,272.006 183.676 C 272.011 184.057,272.118 184.036,272.400 183.600 C 272.613 183.270,272.788 182.730,272.788 182.400 C 272.788 181.909,272.725 181.899,272.442 182.345 C 272.162 182.788,272.064 182.792,271.922 182.365 C 271.799 181.997,271.665 182.053,271.473 182.553 M197.045 185.859 C 196.053 187.806,195.231 189.164,195.220 188.876 C 195.197 188.277,194.400 188.638,194.400 189.247 C 194.400 189.467,194.580 189.536,194.800 189.400 C 195.306 189.087,195.306 189.617,194.800 190.400 C 194.518 190.836,194.411 190.857,194.406 190.476 C 194.403 190.188,194.220 190.064,194.000 190.200 C 193.780 190.336,193.600 190.627,193.600 190.847 C 193.600 191.067,193.803 191.122,194.052 190.968 C 194.319 190.803,194.433 190.901,194.330 191.209 C 194.037 192.090,192.640 192.019,191.889 191.084 L 191.178 190.200 191.653 191.300 C 191.925 191.929,192.443 192.400,192.864 192.400 C 193.552 192.400,193.600 192.885,193.600 199.911 C 193.600 208.248,193.764 208.877,196.118 209.557 C 197.028 209.820,195.250 209.938,190.000 209.963 C 182.708 209.998,182.620 209.989,183.976 209.299 C 184.733 208.915,185.422 208.330,185.507 208.000 C 185.642 207.473,185.611 207.472,185.250 207.991 C 185.025 208.316,184.257 208.779,183.544 209.019 C 180.372 210.087,181.790 210.400,189.800 210.400 C 197.587 210.400,199.499 210.019,196.174 209.130 C 194.123 208.581,194.000 208.074,194.000 200.154 L 194.000 192.860 196.597 187.760 C 198.025 184.955,199.117 182.583,199.022 182.489 C 198.928 182.394,198.038 183.911,197.045 185.859 M178.400 182.950 C 178.400 183.241,180.471 186.800,180.641 186.800 C 180.736 186.800,180.357 185.900,179.800 184.800 C 178.931 183.086,178.400 182.383,178.400 182.950 M310.400 183.171 C 310.400 183.375,310.085 183.632,309.700 183.742 C 309.315 183.853,309.526 183.911,310.169 183.872 C 311.369 183.798,312.174 182.800,311.033 182.800 C 310.685 182.800,310.400 182.967,310.400 183.171 M316.498 183.300 C 316.588 183.575,317.188 183.832,317.831 183.872 C 318.474 183.911,318.685 183.853,318.300 183.742 C 317.915 183.632,317.600 183.375,317.600 183.171 C 317.600 182.967,317.315 182.800,316.967 182.800 C 316.618 182.800,316.407 183.025,316.498 183.300 M340.000 183.171 C 340.000 183.375,339.685 183.632,339.300 183.742 C 338.915 183.853,339.126 183.911,339.769 183.872 C 340.969 183.798,341.774 182.800,340.633 182.800 C 340.285 182.800,340.000 182.967,340.000 183.171 M346.098 183.300 C 346.188 183.575,346.788 183.832,347.431 183.872 C 348.074 183.911,348.285 183.853,347.900 183.742 C 347.515 183.632,347.200 183.375,347.200 183.171 C 347.200 182.967,346.915 182.800,346.567 182.800 C 346.218 182.800,346.007 183.025,346.098 183.300 M308.000 184.000 C 308.000 184.220,307.659 184.400,307.243 184.400 C 306.826 184.400,306.375 184.689,306.239 185.042 C 306.094 185.420,305.740 185.586,305.374 185.446 C 304.667 185.174,302.800 186.844,302.800 187.748 C 302.800 188.070,302.575 188.424,302.300 188.535 C 302.001 188.656,302.082 188.750,302.500 188.768 C 302.885 188.786,303.200 188.967,303.200 189.171 C 303.200 189.375,302.885 189.624,302.500 189.724 C 302.077 189.835,302.242 189.926,302.918 189.954 C 303.915 189.995,306.000 188.532,306.000 187.791 C 306.000 187.414,304.236 188.051,303.922 188.542 C 303.769 188.781,303.515 188.849,303.359 188.692 C 302.897 188.230,306.815 184.800,307.805 184.800 C 308.132 184.800,308.400 184.530,308.400 184.200 C 308.400 183.870,308.310 183.600,308.200 183.600 C 308.090 183.600,308.000 183.780,308.000 184.000 M319.206 184.057 C 319.203 184.419,319.630 184.821,320.160 184.954 C 320.754 185.103,321.280 185.654,321.539 186.398 C 321.933 187.527,322.800 188.079,322.800 187.200 C 322.800 186.980,322.663 186.800,322.495 186.800 C 322.327 186.800,322.012 186.410,321.795 185.933 C 321.578 185.456,321.040 184.871,320.600 184.633 C 320.160 184.395,319.668 184.020,319.506 183.800 C 319.338 183.570,319.210 183.680,319.206 184.057 M337.600 184.000 C 337.600 184.220,337.240 184.400,336.800 184.400 C 336.360 184.400,336.000 184.580,336.000 184.800 C 336.000 185.020,335.550 185.200,335.000 185.200 C 334.450 185.200,334.000 185.350,334.000 185.533 C 334.000 186.307,334.579 186.327,335.617 185.588 C 336.225 185.155,337.011 184.800,337.362 184.800 C 337.713 184.800,338.000 184.530,338.000 184.200 C 338.000 183.870,337.910 183.600,337.800 183.600 C 337.690 183.600,337.600 183.780,337.600 184.000 M341.457 184.200 C 341.127 184.530,340.741 184.800,340.600 184.800 C 340.153 184.800,339.429 185.743,338.500 187.538 C 337.434 189.596,337.426 189.642,338.200 189.345 C 338.530 189.218,338.800 188.684,338.800 188.157 C 338.800 187.631,338.961 187.200,339.158 187.200 C 339.534 187.200,341.416 185.490,342.349 184.300 C 343.025 183.438,342.300 183.357,341.457 184.200 M349.232 184.100 C 349.213 184.519,349.489 184.800,349.920 184.800 C 350.316 184.800,350.867 185.025,351.144 185.300 C 351.548 185.701,351.595 185.661,351.381 185.100 C 351.234 184.715,350.789 184.400,350.391 184.400 C 349.992 184.400,349.576 184.175,349.465 183.900 C 349.344 183.601,349.250 183.682,349.232 184.100 M270.673 184.553 C 270.303 185.518,270.329 185.691,270.800 185.400 C 271.020 185.264,271.203 185.388,271.206 185.676 C 271.211 186.057,271.318 186.036,271.600 185.600 C 272.092 184.838,272.111 184.284,271.634 184.579 C 271.433 184.703,271.196 184.588,271.108 184.323 C 271.009 184.026,270.841 184.115,270.673 184.553 M344.238 184.555 C 344.355 184.860,344.980 185.216,345.626 185.345 C 346.471 185.514,346.800 185.812,346.800 186.408 C 346.800 186.864,347.250 187.686,347.800 188.236 C 348.537 188.974,348.800 189.074,348.800 188.618 C 348.800 188.278,348.620 188.000,348.400 188.000 C 348.180 188.000,348.000 187.731,348.000 187.403 C 348.000 186.625,346.407 184.800,345.728 184.800 C 345.438 184.800,345.200 184.620,345.200 184.400 C 345.200 184.180,344.936 184.000,344.613 184.000 C 344.276 184.000,344.116 184.237,344.238 184.555 M236.239 185.515 C 236.069 186.239,235.288 187.679,234.504 188.715 C 233.695 189.785,233.469 190.254,233.981 189.800 C 235.269 188.658,236.891 185.749,236.706 184.911 C 236.601 184.439,236.445 184.642,236.239 185.515 M352.092 185.675 C 352.339 186.417,353.200 186.540,353.200 185.833 C 353.200 185.485,352.915 185.200,352.567 185.200 C 352.218 185.200,352.005 185.414,352.092 185.675 M269.873 186.553 C 269.467 187.612,269.550 188.297,270.000 187.600 C 270.345 187.067,270.389 187.067,270.400 187.600 C 270.411 188.133,270.455 188.133,270.800 187.600 C 271.292 186.838,271.311 186.284,270.834 186.579 C 270.633 186.703,270.396 186.588,270.308 186.323 C 270.209 186.026,270.041 186.115,269.873 186.553 M312.200 186.864 C 312.640 187.106,313.311 187.686,313.691 188.152 C 314.071 188.618,314.386 188.806,314.391 188.570 C 314.404 187.957,312.658 186.398,311.974 186.412 C 311.604 186.420,311.685 186.581,312.200 186.864 M180.800 187.350 C 180.800 187.641,182.871 191.200,183.041 191.200 C 183.136 191.200,182.757 190.300,182.200 189.200 C 181.331 187.486,180.800 186.783,180.800 187.350 M354.409 187.900 C 354.414 188.065,354.770 188.650,355.200 189.200 C 355.630 189.750,355.986 190.403,355.991 190.651 C 356.007 191.434,357.200 192.222,357.200 191.449 C 357.200 191.092,357.020 190.800,356.800 190.800 C 356.580 190.800,356.400 190.530,356.400 190.200 C 356.400 189.870,356.220 189.600,356.000 189.600 C 355.780 189.600,355.600 189.150,355.600 188.600 C 355.600 187.978,355.373 187.600,355.000 187.600 C 354.670 187.600,354.404 187.735,354.409 187.900 M227.116 189.217 C 226.748 189.859,225.851 190.746,225.123 191.190 C 223.574 192.135,223.910 192.274,225.613 191.393 C 226.258 191.060,227.073 190.233,227.423 189.556 C 228.244 187.968,227.993 187.690,227.116 189.217 M252.018 188.451 C 251.980 188.980,253.257 191.676,253.452 191.481 C 253.565 191.368,253.293 190.584,252.847 189.738 C 252.400 188.892,252.027 188.313,252.018 188.451 M269.000 188.733 C 268.529 189.204,268.857 189.921,269.500 189.827 C 270.373 189.699,270.659 188.533,269.816 188.533 C 269.477 188.533,269.110 188.623,269.000 188.733 M330.991 189.170 C 331.152 189.678,330.991 190.077,330.521 190.340 C 330.128 190.560,329.952 190.886,330.131 191.064 C 330.489 191.422,331.977 189.692,331.991 188.900 C 331.996 188.625,331.718 188.400,331.373 188.400 C 330.936 188.400,330.820 188.634,330.991 189.170 M348.400 190.229 C 348.400 190.354,348.670 190.727,349.000 191.057 C 349.533 191.590,349.600 191.565,349.600 190.829 C 349.600 190.359,349.340 190.000,349.000 190.000 C 348.670 190.000,348.400 190.103,348.400 190.229 M231.200 191.200 C 230.430 191.622,229.944 191.974,230.120 191.983 C 230.544 192.005,232.800 190.832,232.800 190.590 C 232.800 190.328,232.777 190.337,231.200 191.200 M268.273 190.953 C 267.903 191.918,267.929 192.091,268.400 191.800 C 268.620 191.664,268.803 191.788,268.806 192.076 C 268.811 192.457,268.918 192.436,269.200 192.000 C 269.413 191.670,269.588 191.130,269.588 190.800 C 269.588 190.309,269.525 190.299,269.242 190.745 C 268.962 191.188,268.864 191.192,268.722 190.765 C 268.599 190.397,268.465 190.453,268.273 190.953 M337.067 191.467 C 336.920 191.613,336.821 192.198,336.846 192.767 C 336.877 193.444,336.956 193.559,337.076 193.100 C 337.176 192.715,337.425 192.400,337.629 192.400 C 337.833 192.400,338.000 192.130,338.000 191.800 C 338.000 191.175,337.527 191.006,337.067 191.467 M227.300 192.544 C 226.185 193.096,226.137 193.600,227.200 193.600 C 227.640 193.600,228.000 193.414,228.000 193.187 C 228.000 192.960,228.405 192.611,228.900 192.412 C 229.708 192.088,229.718 192.053,229.000 192.074 C 228.560 192.088,227.795 192.299,227.300 192.544 M267.079 194.050 C 266.330 196.010,266.199 196.931,266.800 196.000 C 267.145 195.467,267.189 195.467,267.200 196.000 C 267.211 196.533,267.255 196.533,267.600 196.000 C 268.106 195.217,268.106 194.687,267.600 195.000 C 267.094 195.313,267.094 194.783,267.600 194.000 C 267.945 193.467,267.989 193.467,268.000 194.000 C 268.011 194.533,268.055 194.533,268.400 194.000 C 268.892 193.238,268.911 192.684,268.434 192.979 C 268.233 193.103,267.998 192.995,267.913 192.739 C 267.827 192.482,267.452 193.072,267.079 194.050 M262.417 193.100 C 262.439 193.501,263.962 196.270,263.983 195.949 C 264.011 195.535,262.805 192.800,262.595 192.800 C 262.488 192.800,262.408 192.935,262.417 193.100 M356.864 193.604 C 356.939 194.117,357.225 194.611,357.500 194.702 C 358.206 194.935,358.121 194.064,357.364 193.307 C 356.782 192.725,356.739 192.750,356.864 193.604 M184.690 194.500 C 185.235 195.497,185.452 197.103,185.622 201.400 L 185.843 207.000 185.922 201.684 C 185.996 196.636,185.291 193.200,184.182 193.200 C 184.070 193.200,184.299 193.785,184.690 194.500 M320.285 194.743 C 319.724 195.592,318.440 196.807,317.433 197.443 C 316.426 198.079,315.601 198.836,315.601 199.124 C 315.600 199.412,315.460 199.561,315.289 199.455 C 315.118 199.349,314.556 199.580,314.041 199.969 L 313.105 200.675 314.306 200.499 C 315.077 200.386,315.662 199.983,315.940 199.372 C 316.178 198.850,316.858 198.300,317.451 198.151 C 318.791 197.815,321.020 195.570,321.361 194.214 C 321.709 192.825,321.480 192.938,320.285 194.743 M225.305 195.227 C 225.743 196.111,226.181 196.753,226.280 196.654 C 226.500 196.434,225.339 194.133,224.858 193.836 C 224.667 193.718,224.868 194.344,225.305 195.227 M232.479 195.605 C 233.283 196.268,234.152 197.450,234.410 198.232 C 234.669 199.014,234.968 199.565,235.076 199.457 C 235.703 198.831,232.536 194.400,231.462 194.400 C 231.218 194.400,231.676 194.942,232.479 195.605 M313.700 194.688 C 313.099 194.903,313.026 196.000,313.613 196.000 C 314.025 196.000,314.631 194.879,314.349 194.638 C 314.267 194.567,313.975 194.590,313.700 194.688 M328.900 195.398 C 328.323 196.053,328.215 199.600,328.772 199.600 C 328.977 199.600,329.222 200.005,329.318 200.500 C 329.413 200.995,329.516 199.915,329.546 198.100 C 329.575 196.285,329.555 194.807,329.500 194.815 C 329.445 194.824,329.175 195.086,328.900 195.398 M255.218 196.051 C 255.180 196.580,256.457 199.276,256.652 199.081 C 256.765 198.968,256.493 198.184,256.047 197.338 C 255.600 196.492,255.227 195.913,255.218 196.051 M265.753 197.500 C 265.618 197.995,265.318 198.400,265.087 198.400 C 264.856 198.400,264.782 198.516,264.924 198.657 C 265.065 198.798,265.410 198.724,265.690 198.491 C 265.971 198.258,266.378 198.098,266.595 198.134 C 266.812 198.170,267.033 197.840,267.087 197.400 C 267.144 196.942,267.083 196.833,266.945 197.145 C 266.741 197.606,266.648 197.606,266.352 197.145 C 266.081 196.726,265.943 196.807,265.753 197.500 M312.550 197.415 C 312.681 197.756,312.538 198.126,312.229 198.244 C 311.923 198.362,311.568 198.873,311.441 199.380 C 311.314 199.887,310.781 200.583,310.257 200.926 C 309.154 201.648,305.200 205.439,305.200 205.774 C 305.200 206.346,306.129 205.881,307.551 204.596 C 308.999 203.289,309.119 203.248,309.318 204.007 C 309.586 205.033,321.173 205.085,321.513 204.062 C 321.659 203.624,320.580 203.550,315.679 203.662 C 310.903 203.772,309.752 203.697,310.082 203.300 C 310.311 203.025,310.914 202.800,311.422 202.800 C 312.312 202.800,313.179 201.446,312.637 200.903 C 312.506 200.773,312.400 200.877,312.400 201.133 C 312.400 201.390,312.207 201.600,311.971 201.600 C 311.736 201.600,311.273 201.870,310.943 202.200 C 310.613 202.530,310.176 202.800,309.971 202.800 C 309.254 202.800,309.612 201.996,310.800 200.937 C 311.460 200.349,312.000 199.628,312.000 199.334 C 312.000 199.040,312.151 198.800,312.336 198.800 C 312.520 198.800,312.877 198.350,313.127 197.800 C 313.509 196.962,313.480 196.800,312.949 196.800 C 312.542 196.800,312.399 197.021,312.550 197.415 M226.456 198.200 C 226.456 198.640,226.611 199.360,226.800 199.800 L 227.144 200.600 227.144 199.800 C 227.144 199.360,226.989 198.640,226.800 198.200 L 226.456 197.400 226.456 198.200 M356.969 199.383 C 356.833 199.923,356.815 200.598,356.929 200.883 C 357.062 201.212,357.148 201.146,357.168 200.700 C 357.186 200.315,357.380 200.000,357.600 200.000 C 357.820 200.000,358.000 199.640,358.000 199.200 C 358.000 198.073,357.265 198.203,356.969 199.383 M265.800 199.600 C 265.650 200.073,265.617 200.550,265.727 200.660 C 265.837 200.770,266.050 200.473,266.200 200.000 C 266.350 199.527,266.383 199.050,266.273 198.940 C 266.163 198.830,265.950 199.127,265.800 199.600 M235.256 201.000 C 235.256 201.440,235.411 202.160,235.600 202.600 L 235.944 203.400 235.944 202.600 C 235.944 202.160,235.789 201.440,235.600 201.000 L 235.256 200.200 235.256 201.000 M227.287 202.000 C 227.283 202.550,227.424 203.450,227.600 204.000 C 228.031 205.344,228.031 203.892,227.600 202.200 C 227.326 201.122,227.294 201.102,227.287 202.000 M336.928 202.169 C 337.002 203.369,338.000 204.174,338.000 203.033 C 338.000 202.685,337.833 202.400,337.629 202.400 C 337.425 202.400,337.168 202.085,337.058 201.700 C 336.947 201.315,336.889 201.526,336.928 202.169 M323.300 202.432 C 323.808 202.728,324.001 203.355,324.004 204.720 C 324.010 207.227,324.423 209.600,324.852 209.600 C 325.766 209.600,325.232 202.502,324.300 202.252 C 322.956 201.892,322.510 201.972,323.300 202.432 M329.200 202.767 C 329.200 203.258,329.458 203.600,329.829 203.600 C 330.202 203.600,330.406 203.328,330.329 202.933 C 330.135 201.930,329.200 201.792,329.200 202.767 M348.900 202.623 C 348.625 202.922,348.400 203.354,348.400 203.583 C 348.400 204.212,349.193 204.083,349.450 203.413 C 349.798 202.506,349.457 202.016,348.900 202.623 M356.267 202.267 C 356.120 202.413,356.000 202.786,356.000 203.095 C 356.000 203.561,356.103 203.554,356.600 203.057 C 356.930 202.727,357.200 202.354,357.200 202.229 C 357.200 201.915,356.593 201.940,356.267 202.267 M322.000 203.367 C 322.000 203.715,322.285 204.000,322.633 204.000 C 323.340 204.000,323.217 203.139,322.475 202.892 C 322.214 202.805,322.000 203.018,322.000 203.367 M236.056 204.600 C 236.056 205.040,236.211 205.760,236.400 206.200 L 236.744 207.000 236.744 206.200 C 236.744 205.760,236.589 205.040,236.400 204.600 L 236.056 203.800 236.056 204.600 M330.000 204.536 C 330.000 204.830,330.434 205.270,330.965 205.511 C 331.496 205.753,332.040 206.295,332.173 206.715 C 332.306 207.135,332.846 207.675,333.373 207.915 C 333.900 208.155,334.448 208.722,334.592 209.176 C 334.736 209.629,335.127 210.000,335.460 210.000 C 336.096 210.000,336.051 209.191,335.409 209.070 C 334.804 208.956,331.201 205.043,331.200 204.500 C 331.200 204.225,330.930 204.000,330.600 204.000 C 330.270 204.000,330.000 204.241,330.000 204.536 M355.200 204.547 C 355.200 204.848,354.366 205.928,353.347 206.947 C 352.328 207.966,351.248 208.800,350.947 208.800 C 350.646 208.800,350.414 209.115,350.432 209.500 C 350.450 209.918,350.544 209.999,350.665 209.700 C 350.776 209.425,351.040 209.200,351.252 209.200 C 351.755 209.200,355.600 205.355,355.600 204.852 C 355.600 204.640,355.825 204.376,356.100 204.265 C 356.399 204.144,356.318 204.050,355.900 204.032 C 355.515 204.014,355.200 204.246,355.200 204.547 M246.054 205.000 C 246.019 205.440,245.889 206.250,245.767 206.800 C 245.575 207.663,245.607 207.703,245.998 207.090 C 246.247 206.699,246.377 205.889,246.286 205.290 C 246.178 204.579,246.097 204.479,246.054 205.000 M337.632 205.076 C 337.614 205.558,337.792 206.071,338.027 206.216 C 338.591 206.565,339.102 206.038,338.548 205.678 C 338.313 205.525,338.017 205.130,337.892 204.800 C 337.736 204.392,337.653 204.480,337.632 205.076 M348.446 204.867 C 348.421 205.233,348.175 205.614,347.900 205.712 C 347.625 205.810,347.538 206.038,347.707 206.219 C 348.177 206.722,348.899 205.779,348.684 204.942 C 348.528 204.336,348.484 204.322,348.446 204.867 M228.028 206.126 C 227.977 207.458,230.004 210.402,230.970 210.398 C 231.206 210.397,230.906 209.992,230.303 209.498 C 229.699 209.004,228.947 207.880,228.631 207.000 C 228.315 206.120,228.044 205.727,228.028 206.126 M259.218 205.651 C 259.180 206.180,260.457 208.876,260.652 208.681 C 260.765 208.568,260.493 207.784,260.047 206.938 C 259.600 206.092,259.227 205.513,259.218 205.651 M282.446 207.030 C 282.390 208.047,283.847 209.466,285.200 209.710 C 285.750 209.810,282.690 209.891,278.400 209.891 C 274.110 209.891,271.050 209.810,271.600 209.712 C 272.150 209.613,272.780 209.355,273.000 209.138 C 273.376 208.768,271.462 209.051,270.700 209.479 C 269.451 210.179,271.304 210.400,278.433 210.400 C 286.404 210.400,288.368 210.013,284.923 209.120 C 283.577 208.771,282.987 208.212,282.689 207.000 C 282.499 206.224,282.491 206.225,282.446 207.030 M338.894 207.317 C 339.275 207.626,339.485 207.982,339.360 208.107 C 339.234 208.233,339.522 208.544,340.000 208.800 C 340.478 209.056,340.965 209.169,341.082 209.051 C 341.371 208.762,340.402 207.833,339.192 207.241 C 338.319 206.814,338.283 206.823,338.894 207.317 M236.800 207.489 C 236.800 207.992,237.943 208.990,238.212 208.721 C 238.318 208.615,238.044 208.202,237.602 207.802 C 237.161 207.403,236.800 207.262,236.800 207.489 M346.800 207.629 C 346.800 208.207,345.772 209.200,345.173 209.200 C 344.906 209.200,344.484 209.480,344.234 209.822 C 343.773 210.452,342.400 210.253,342.400 209.557 C 342.400 209.361,342.220 209.200,342.000 209.200 C 341.354 209.200,341.542 210.292,342.233 210.557 C 342.581 210.691,343.301 210.800,343.833 210.800 C 344.365 210.800,344.800 210.980,344.800 211.200 C 344.800 211.420,345.160 211.600,345.600 211.600 C 346.040 211.600,346.400 211.433,346.400 211.229 C 346.400 211.025,346.715 210.776,347.100 210.676 C 347.485 210.575,347.215 210.472,346.500 210.446 C 345.357 210.406,344.527 209.600,345.629 209.600 C 346.063 209.600,346.553 209.165,347.549 207.898 C 348.023 207.295,348.009 207.200,347.449 207.200 C 347.092 207.200,346.800 207.393,346.800 207.629 M239.642 208.366 C 239.195 208.649,239.235 208.751,239.842 208.878 C 240.485 209.013,240.417 209.139,239.400 209.703 C 238.740 210.069,238.422 210.375,238.694 210.384 C 238.965 210.393,239.775 209.865,240.494 209.212 C 241.805 208.019,241.176 207.394,239.642 208.366 M243.100 209.232 C 241.573 210.121,242.546 210.400,247.176 210.400 C 251.956 210.400,253.443 209.977,251.398 209.199 C 249.841 208.607,249.210 208.778,250.600 209.414 C 251.699 209.918,251.413 209.963,247.200 209.957 C 244.054 209.952,242.885 209.835,243.500 209.588 C 243.995 209.389,244.400 209.130,244.400 209.013 C 244.400 208.690,243.879 208.778,243.100 209.232 M260.903 209.600 C 261.148 210.500,262.401 210.609,262.394 209.729 C 262.389 209.111,262.328 209.091,261.994 209.600 C 261.644 210.133,261.552 210.133,261.170 209.600 C 260.787 209.067,260.757 209.067,260.903 209.600 M336.667 209.867 C 336.206 210.327,336.375 210.800,337.000 210.800 C 337.330 210.800,337.600 210.530,337.600 210.200 C 337.600 209.575,337.127 209.406,336.667 209.867 M348.400 210.200 C 348.400 210.530,348.503 210.800,348.629 210.800 C 348.754 210.800,349.127 210.530,349.457 210.200 C 349.990 209.667,349.965 209.600,349.229 209.600 C 348.759 209.600,348.400 209.860,348.400 210.200 M232.138 210.894 C 232.392 211.056,233.590 211.188,234.800 211.188 C 236.010 211.188,237.208 211.056,237.462 210.894 C 237.716 210.732,236.518 210.600,234.800 210.600 C 233.082 210.600,231.884 210.732,232.138 210.894 M339.445 210.972 C 339.730 211.715,341.345 211.839,341.102 211.100 C 341.011 210.825,340.547 210.543,340.071 210.472 C 339.422 210.377,339.265 210.503,339.445 210.972 " stroke="none" fill="#ffffff" fill-rule="evenodd"></path></g></svg>
